<svg id="SvgjsSvg1001" width="288" height="288" xmlns="http://www.w3.org/2000/svg" version="1.1" xmlns:xlink="http://www.w3.org/1999/xlink" xmlns:svgjs="http://svgjs.com/svgjs"><defs id="SvgjsDefs1002"></defs><g id="SvgjsG1008" transform="matrix(0.9167,0,0,0.9167,11.495225229644788,11.49517502288819)"><svg xmlns="http://www.w3.org/2000/svg" width="288" height="288" viewBox="0 0 24 24"><path fill="none" stroke="#ff5722" stroke-linecap="round" stroke-linejoin="round" d="M5.1357,17.8638 C1.6207,14.3488 1.6207,8.6508 5.1357,5.1358 C8.6507,1.6208 14.3497,1.6208 17.8647,5.1358 C21.3787,8.6508 21.3787,14.3488 17.8647,17.8638 M7.2578,15.7427 C4.9138,13.3997 4.9138,9.6007 7.2578,7.2577 C9.6008,4.9137 13.3998,4.9137 15.7418,7.2577 C18.0858,9.6007 18.0858,13.3997 15.7418,15.7427 M9.3789,13.6211 C8.2069,12.4501 8.2069,10.5501 9.3789,9.3791 C10.5499,8.2071 12.4499,8.2071 13.6209,9.3791 C14.7929,10.5501 14.7929,12.4501 13.6209,13.6211 M12,11.5 C12,11.776 11.776,12 11.5,12 C11.224,12 11,11.776 11,11.5 C11,11.224 11.224,11 11.5,11 C11.776,11 12,11.224 12,11.5 Z M11.5,11.5 L11.5,20.5" class="colorStroke000 svgStroke"></path></svg></g></svg>